PathFileType	4	(X/Y/Z)	Kaydara	
DataRate	CameraRate	NumFrames	NumMarkers	Units	OrigDataRate	OrigDataStartFrame	OrigNumFrames	
240.00	240.00	4	72	mm	240.00	225	359	
Frame#	Time	Hips			RightUpLeg			RightLeg			RightFoot			RightFoot_End			LeftUpLeg			LeftLeg			LeftFoot			LeftFoot_End			Spine			Spine1			Spine2			Spine3			Neck			Head			Head_End			RightShoulder			RightArm			RightForeArm			RightHand			RightHandThumb1			RightHandThumb2			RightHandThumb3			RightHandThumb3_End			RightInHandIndex			RightHandIndex1			RightHandIndex2			RightHandIndex3			RightHandIndex3_End			RightInHandMiddle			RightHandMiddle1			RightHandMiddle2			RightHandMiddle3			RightHandMiddle3_End			RightInHandRing			RightHandRing1			RightHandRing2			RightHandRing3			RightHandRing3_End			RightInHandPinky			RightHandPinky1			RightHandPinky2			RightHandPinky3			RightHandPinky3_End			LeftShoulder			LeftArm			LeftForeArm			LeftHand			LeftHandThumb1			LeftHandThumb2			LeftHandThumb3			LeftHandThumb3_End			LeftInHandIndex			LeftHandIndex1			LeftHandIndex2			LeftHandIndex3			LeftHandIndex3_End			LeftInHandMiddle			LeftHandMiddle1			LeftHandMiddle2			LeftHandMiddle3			LeftHandMiddle3_End			LeftInHandRing			LeftHandRing1			LeftHandRing2			LeftHandRing3			LeftHandRing3_End			LeftInHandPinky			LeftHandPinky1			LeftHandPinky2			LeftHandPinky3			LeftHandPinky3_End			
		X1	Y1	Z1	X2	Y2	Z2	X3	Y3	Z3	X4	Y4	Z4	X5	Y5	Z5	X6	Y6	Z6	X7	Y7	Z7	X8	Y8	Z8	X9	Y9	Z9	X10	Y10	Z10	X11	Y11	Z11	X12	Y12	Z12	X13	Y13	Z13	X14	Y14	Z14	X15	Y15	Z15	X16	Y16	Z16	X17	Y17	Z17	X18	Y18	Z18	X19	Y19	Z19	X20	Y20	Z20	X21	Y21	Z21	X22	Y22	Z22	X23	Y23	Z23	X24	Y24	Z24	X25	Y25	Z25	X26	Y26	Z26	X27	Y27	Z27	X28	Y28	Z28	X29	Y29	Z29	X30	Y30	Z30	X31	Y31	Z31	X32	Y32	Z32	X33	Y33	Z33	X34	Y34	Z34	X35	Y35	Z35	X36	Y36	Z36	X37	Y37	Z37	X38	Y38	Z38	X39	Y39	Z39	X40	Y40	Z40	X41	Y41	Z41	X42	Y42	Z42	X43	Y43	Z43	X44	Y44	Z44	X45	Y45	Z45	X46	Y46	Z46	X47	Y47	Z47	X48	Y48	Z48	X49	Y49	Z49	X50	Y50	Z50	X51	Y51	Z51	X52	Y52	Z52	X53	Y53	Z53	X54	Y54	Z54	X55	Y55	Z55	X56	Y56	Z56	X57	Y57	Z57	X58	Y58	Z58	X59	Y59	Z59	X60	Y60	Z60	X61	Y61	Z61	X62	Y62	Z62	X63	Y63	Z63	X64	Y64	Z64	X65	Y65	Z65	X66	Y66	Z66	X67	Y67	Z67	X68	Y68	Z68	X69	Y69	Z69	X70	Y70	Z70	X71	Y71	Z71	X72	Y72	Z72	

225	0.933	4198.941	914.58397	126.699	4249.3797583803525	891.8416144495337	52.18661242881179	4152.923267465784	496.5354539967245	-47.31280039891908	4142.3647933706525	105.2826720687444	-124.43105628245884	3991.1658343217077	28.410945214521863	-36.29527230561521	4162.290703846339	911.0822344736875	212.98051379572883	4070.2366130490223	508.72389788486385	283.88097841333683	3992.6952482590336	83.83479885872384	366.6730861407063	3871.679939244844	1.0774132609796645	244.01862184108364	4134.827297445657	1032.6440386928653	77.54249918417884	4074.1046782658514	1088.1835711498031	25.922672112597986	4008.1199423016246	1139.1255335493902	-31.413221058021136	3941.7138429247366	1177.242160347578	-91.22400508162252	3869.566327626227	1218.3736302465293	-153.50343555741316	3802.285067832029	1256.3884519268124	-207.7063831388675	3665.2687629231777	1335.699307140875	-223.38722287362486	3910.243578817747	1198.6199857271195	-155.95157886603442	3947.3493660029367	1155.1832938706898	-251.26863556833422	3972.256401124636	939.8742740915245	-202.02363743172114	3950.0682483932774	838.4953268106688	-279.9350372305038	3946.3564570357717	853.9805426848618	-281.00652217607984	3938.5742039679685	863.7426327759189	-281.90791381493267	3934.2806709751103	867.4232171723271	-283.4696915019576	3931.664634785929	867.8244152063372	-285.57073754458554	3950.8063576616464	843.9747894930136	-284.8256737167109	3952.84550113596	841.8688987682881	-294.1510397994173	3950.2374397425056	841.7400490684059	-298.65075221969045	3945.330039619585	845.0967265565553	-298.87151393743784	3939.051695169323	850.1932562626027	-297.31617557089425	3953.606602052185	835.6318715787693	-286.9469895428691	3957.1113205954157	829.0647744512742	-297.19065974126477	3954.6232535426516	827.8318492821804	-302.34790910270124	3948.874360204082	831.3573862629041	-302.73285331943674	3942.088190097056	836.679103191	-301.0886846170324	3955.581598447973	829.7569662081523	-288.2358981513802	3960.5793253206994	818.6711264801187	-298.61754389226826	3958.770404362894	816.4907596745015	-303.34879764327286	3953.416150651405	819.3042184434148	-303.8455267062757	3947.12594747409	824.0297101264711	-302.35902001469157	3957.4154997811215	823.3175996291362	-289.22938443491273	3963.2939155435365	809.0638732553233	-299.4613755946316	3962.3843976799276	805.6414317340852	-303.5729655118049	3958.7397145411164	806.8826043176587	-304.09152050962103	3953.317672294932	810.6019019677406	-302.8646322745244	3876.8847699121234	1211.1427793629096	-108.60235585424597	3837.841338155602	1195.1780442937925	-7.090680126443729	3915.421575760558	1011.1567242422908	-83.41323461820001	3957.554659051814	870.9958213634203	-215.18246012582406	3964.366298679233	878.0946877573275	-223.78190016018343	3982.2460368914794	866.624009401783	-238.16727100419376	3995.511329019913	855.877980959521	-249.16219031980748	4007.266256079652	844.5602200225954	-259.1639324502014	3967.190828577138	869.9026012433088	-227.9878717386839	3988.045680720759	853.4862443915794	-251.55060962519912	4006.392995927123	836.4922465008085	-268.4025309516562	4017.623017294658	826.3901571093645	-276.50468941956984	4026.799037486884	818.3410219070986	-281.60904669636926	3968.8607391369933	862.7083536266491	-229.8464939875886	3990.1040946859875	842.8065463186929	-253.8340795780195	4010.2821546317296	823.3597434143396	-272.39225937904837	4023.9063245081365	810.7386400944196	-282.2484850011131	4033.983296358096	801.7207772471515	-287.8730845251228	3969.478879509282	858.0797989941474	-230.56478484219025	3988.967556762793	836.3290504238064	-252.7048780242956	4006.6826412409196	818.48718713808	-269.01550519984426	4019.8921147990573	805.8394518729855	-278.5944328842727	4029.399165880558	797.135927751463	-283.9170039781808	3969.819249161078	852.9429616040925	-230.6591306221234	3987.811848324192	829.9394811579979	-251.05334472267143	4002.112063946335	814.3554159478156	-264.22869210777264	4011.802554499104	804.5027231727049	-271.2709463683743	4020.256171032663	796.4317512673571	-276.01772308600795
226	0.938	4198.941	914.58397	126.699	4249.362793935535	891.7993317291715	52.19578509309368	4152.887918619634	496.5169146479209	-47.37597214510821	4142.410480941817	105.26884438662083	-124.51828738449157	3991.2210580079686	28.396185499444435	-36.36698561905082	4162.302406208576	911.1259880831097	212.98033369377606	4070.214993720233	508.7585573028485	283.7830664008248	3992.6448248526535	83.8614622521209	366.5014367558277	3871.6324085817478	1.1032990076385492	243.84473815924247	4134.851536339552	1032.639477975519	77.50201414750563	4074.1508716797557	1088.186556647876	25.865674146839428	4008.1831145712667	1139.135906504291	-31.48258197993437	3941.776148974784	1177.2474602698674	-91.29615551862861	3869.631082906743	1218.3725131422264	-153.58324397946032	3802.3568086191594	1256.383779860673	-207.7979465576651	3665.4008522928093	1335.7438404643128	-223.70233417341916	3910.2638389284807	1198.535814437846	-156.02906966349738	3946.9863180656007	1154.6683710116154	-251.2420141710837	3971.171311642615	939.665503056966	-200.80570876025084	3949.028709149153	838.1107572386288	-277.78585553327304	3945.454668284509	853.9308518177008	-278.4779483621267	3938.1484338765094	863.8921707459027	-279.2249777750418	3934.1846231653053	867.6670119915167	-280.73742407251723	3931.841942442207	868.1087309702151	-282.84710432777547	3949.8780392185254	843.8003972354528	-282.46169441154495	3952.2226323708956	841.8331944043327	-291.71397864125055	3950.0023277818245	841.7792488935559	-296.21148246953027	3945.4099059767495	845.1961095347058	-296.4158636416712	3939.4421237296406	850.3516365516476	-294.83684440558216	3952.6711465394	835.3306295700728	-284.746069636698	3956.4698811189974	828.8301977840146	-295.0066430021042	3954.403220218544	827.6617936016723	-300.1832955285789	3949.033514406514	831.2516786908403	-300.55894455105295	3942.5867557546844	836.6339333558784	-298.8939532475307	3954.6315761087403	829.3625220983301	-286.15191638102596	3959.8750944268404	818.2553932697621	-296.64984621454636	3958.4312769361327	816.1135636344674	-301.4202816066163	3953.4416137197527	818.9796918838581	-301.91987148031245	3947.4699903162496	823.7576504663467	-300.419390709155	3956.4534657697877	822.8120619794832	-287.28330784339306	3962.5442091499594	808.4702183924954	-297.7065183726344	3961.922567854669	805.0511161619846	-301.88372104601575	3958.5416491679093	806.3173934673475	-302.42092469324643	3953.400568179671	810.0755069773589	-301.1911890735741	3876.994437180645	1211.231251555362	-108.68046939937838	3838.1629841854065	1195.90073014908	-7.06830836436219	3915.1657049964897	1011.4240977236168	-82.28733544055845	3956.11702633907	870.8414650973426	-214.5139548775008	3962.6986434277032	877.9275289674177	-222.91732567010501	3980.0603219988643	866.2658587385316	-237.38479824370486	3992.9602980894847	855.3711598014861	-248.47726348088827	4004.4067937592645	843.9160581876424	-258.5948607472127	3965.5094902907726	869.6905238001709	-227.23242624222053	3985.872421563844	853.074115538238	-250.88825404144262	4003.750844168776	835.8746313814981	-267.89895698517665	4014.6617530886842	825.6366982300273	-276.111318988504	4023.555025524494	817.4696661885239	-281.3146410941767	3967.1781603147597	862.4574859945999	-229.20207693861568	3987.9410761286613	842.339592118264	-253.3404875256839	4007.6087547010993	822.6640105789139	-272.086395578483	4020.848538381843	809.8768323838161	-282.08251918707253	4030.6164301325507	800.7289070408098	-287.8187786278791	3967.80913483622	857.8071618235131	-229.99576174231706	3986.8817698267635	835.845411726163	-252.33450542354984	4004.1540505937555	817.7998259761054	-268.82331194518366	4016.993839849606	804.9896051230864	-278.54491154939586	4026.210792417013	796.1627029257526	-283.97613400479463	3968.169429186612	852.6468489810607	-230.17960020030637	3985.796445415352	829.4370827332359	-250.80896271301387	3999.747078747805	813.6840636520456	-264.14883522698807	4009.1703377393305	803.7100376631232	-271.30572287472165	4017.3683658704936	795.5281524639338	-276.1548284189385
227	0.942	4198.941	914.58397	126.699	4249.344165862972	891.7556699836292	52.20425399634691	4152.85254413376	496.4982870170175	-47.44634197498088	4142.456049460349	105.2548721534545	-124.61208012427483	3991.275900025416	28.38176329369816	-36.44529456019057	4162.315266166192	911.170779078246	212.9806836449727	4070.1960020871948	508.79464384036356	283.6898181548827	3992.594089628644	83.88936480144152	366.33068045008065	3871.584691735801	1.1301793001824332	243.6717891778118	4134.878106539293	1032.6365119110687	77.46234075321038	4074.2008580017273	1088.194683828929	25.811798972567917	4008.2506884563104	1139.1549377275658	-31.546249995390934	3941.840746315362	1177.2624196967283	-91.35959369733307	3869.6959845575075	1218.3822164196213	-153.65104313779852	3802.426938740257	1256.3910862161988	-207.87445993687774	3665.533697086503	1335.8051136714503	-223.9995804423102	3910.283244758505	1198.4616790962414	-156.0958890066373	3946.609287136532	1154.1383753062269	-251.2009410176165	3970.0586942607756	939.4631794398836	-199.5252979838738	3947.9058800435996	837.6372870828966	-275.60324500154564	3944.4943436907565	853.7827364708356	-275.95255055598005	3937.6664907391055	863.9167776154275	-276.5832600512031	3934.0295334381476	867.7655763915315	-278.07004332271543	3931.9539545572757	868.2293194978291	-280.20567288349486	3948.87839937362	843.5210165274336	-280.0936320096445	3951.525111559385	841.6571651468957	-289.3093431631233	3949.6842305730243	841.6486937390375	-293.8326784296218	3945.4022402986748	845.1090252963575	-294.0390248481883	3939.741684499246	850.310785726867	-292.45212555611135	3951.651921254588	834.9203942626651	-282.5322392957661	3955.7346916447036	828.4499969109486	-292.8405499397438	3954.0787044652634	827.3135797191766	-298.0659230348883	3949.081914030481	830.9474487892236	-298.45379619534174	3942.970534468821	836.37617721483	-296.78497266317163	3953.589105102087	828.8571870709259	-284.04781807511256	3959.0620271297257	817.6943812886112	-294.68329912552787	3957.9722985846934	815.5623603618262	-299.51711296697863	3953.340294271918	818.461317840003	-300.03960045067817	3947.683041456977	823.2784261195188	-298.54077955790603	3955.3888332427355	822.1942330932767	-285.3080504972342	3961.6707187693637	807.7319581764334	-295.9362828638848	3961.3256153269053	804.292760319771	-300.1962657197985	3958.2021867892668	805.5694627126057	-300.76566458034404	3953.3376372200714	809.3544754278186	-299.5463158966148	3877.106745061618	1211.3305509025543	-108.74745071149628	3838.495069693832	1196.6336811936562	-7.030322336456836	3914.935289208562	1011.7099899985063	-81.1643775602585	3954.614685374658	870.6972389635087	-213.85516466027767	3960.9739174909096	877.7695362263893	-222.06805341892448	3977.8062443850954	865.915297345022	-236.5961402489359	3990.3282287042425	854.8696748922293	-247.76923473565924	4001.451609239906	843.274366316453	-257.98691385876606	3963.754884040482	869.4830140792167	-226.48797161333417	3983.5934412851952	852.6553705511243	-250.22217033088583	4000.9785087422442	835.2445918671887	-267.36978772358015	4011.560503783042	824.8700964623113	-275.6751107418061	4020.1665630612333	816.5865239100842	-280.9606655788097	3965.41026597077	862.2085278955427	-228.5632992868912	3985.654572246416	841.862200700472	-252.8352871123133	4004.7836891577917	821.9511905351275	-271.7443890878018	4017.6265482284134	808.9969208896637	-281.859285318954	4027.080127047373	799.7203443590158	-287.6887397637078	3966.0463723945613	857.5348117317989	-229.42907517600594	3984.6620160947255	835.3494992944342	-251.94844422174495	4001.465471885032	817.0940958162669	-268.5933841460923	4013.92270756498	804.120249968149	-278.4369272031997	4022.8442742870725	795.1712214047071	-283.95927280461865	3966.418802748836	852.349712457904	-229.69821985438156	3983.637802463366	828.9212277693816	-250.54395589837753	3997.2159187847233	812.99396235203	-264.02974549800143	4006.3615445744563	802.8975729281825	-271.28568533242895	4014.2987165109434	794.6057686392585	-276.2213268575805
228	0.946	4198.941	914.58397	126.699	4249.323375726962	891.710214120444	52.211794555542234	4152.816627037452	496.4790546176712	-47.523730666367896	4142.501002029134	105.24023265336311	-124.71223225456981	3991.3297520930664	28.367171012043148	-36.53017436959885	4162.329720088581	911.2169879097887	212.98178132501468	4070.180269032405	508.8325418636735	283.6017529947183	3992.5435802291136	83.9188416452437	366.16098626498655	3871.537366443526	1.1583051664451578	243.49996071362185	4134.907307116496	1032.635315222936	77.42352180616453	4074.25505305008	1088.208386322406	25.761256305431328	4008.3231517020276	1139.183356231452	-31.60381714051718	3941.9080410142665	1177.287995462897	-91.41366906336634	3869.761340740193	1218.4039462758737	-153.7058972915932	3802.495678463229	1256.4118125478608	-207.93470738222723	3665.66760826459	1335.8849250377048	-224.27674338071873	3910.3018969611876	1198.3986106316656	-156.15112256086627	3946.2178079522937	1153.5933954553946	-251.14314025312498	3968.919018755981	939.2691539405163	-198.18059649410682	3946.6978550398926	837.070957844785	-273.38682266074505	3943.473952797593	853.5301799335853	-273.4322455569486	3937.125744441585	863.8076745297807	-273.9862989332711	3933.811846741719	867.7082684822017	-275.4719158937079	3931.9962088475695	868.1740375491103	-277.6512430461735	3947.80547257377	843.130715095804	-277.72253932150244	3950.749854735167	841.3318428488114	-286.9392494761873	3949.278746727433	841.3370020755244	-291.51717752522296	3945.3017426477813	844.8226131164575	-291.74443575973044	3939.9442801795713	850.0566330365158	-290.16605724177185	3950.5465411002992	834.3954893770592	-280.30569515801284	3954.902049435385	827.9156730062904	-290.6931512059414	3953.644513564665	826.7761185803572	-295.99723292827196	3949.0132571478116	830.4318436585845	-296.419518500752	3943.232339630139	835.8916679688396	-294.7644824737836	3952.4515366737555	828.2355460235369	-281.9231662849149	3958.13607725302	816.9803809186919	-292.7174255289491	3957.3880729290313	814.8272312070035	-297.6392792725871	3953.1056986406265	817.7375021152861	-298.20528273734465	3947.757762442256	822.5792197275357	-296.7243172657348	3954.2186487947733	821.459064429243	-283.30242673940376	3960.6690352425812	806.8421740953714	-294.14898009643235	3960.587975413453	803.3577626262996	-298.50909575718447	3957.7149263961837	804.629029853154	-299.12457019546895	3953.12170937189	808.4279654907891	-297.9292882189526	3877.222283005209	1211.4418915675456	-108.80253778758059	3838.8385364904184	1197.3767179943136	-6.976851666978119	3914.735052743	1012.017930401601	-80.04749568492363	3953.0480064312815	870.5625614483004	-213.20230369842358	3959.1924179165003	877.619973023831	-221.23079269899267	3975.4845158045987	865.5723505935924	-235.7964571596928	3987.6160148708104	854.3740657864721	-247.03193152537156	3998.401657310827	842.636098598048	-257.3325910343548	3961.926828577869	869.2791598751284	-225.7504799306423	3981.2077087512635	852.2289759017413	-249.54646697883553	3998.074845837816	834.6015586488427	-266.8071541720548	4008.3184710462556	824.0903950242315	-275.18694410169013	4016.6334180106514	815.692363769463	-280.5369486774719	3963.556637395301	861.9605528405406	-227.92547513439476	3983.24320679693	841.3733193578425	-252.31161905134124	4001.8054308275573	821.2207363277428	-271.3571411666964	4014.239230258755	808.0990972571649	-281.56813550012566	4023.3738763611263	798.6960744693997	-287.4711511265132	3964.190021667889	857.2618095325274	-228.859626824461	3982.3067183784137	834.8402331176397	-251.53930457782937	3998.615169347057	816.3693569011415	-268.31629999064995	4010.6773569229936	803.2314587964199	-278.25952123862044	4019.298820091438	794.1623016359575	-283.85434255645765	3964.5666941019804	852.050646645674	-229.20943147658457	3981.3342360497313	828.3908833820688	-250.25039670522384	3994.5167359215907	812.2844314817728	-263.8617532837354	4003.3745819632218	802.0651677367264	-271.19998755541036	4011.0461240003833	793.665099387922	-276.2053487805388
